<svg width="24" height="24" viewBox="0 0 24 24" fill="none" xmlns="http://www.w3.org/2000/svg">
<path d="M19.4001 7.33986L16.6601 4.59986C16.3024 4.26395 15.8338 4.07122 15.3434 4.05831C14.8529 4.0454 14.3748 4.21323 14.0001 4.52986L5.00005 13.5299C4.67682 13.8558 4.47556 14.2831 4.43005 14.7399L4.00005 18.9099C3.98658 19.0563 4.00559 19.204 4.05571 19.3422C4.10584 19.4805 4.18585 19.606 4.29005 19.7099C4.38349 19.8025 4.49431 19.8759 4.61615 19.9256C4.73798 19.9754 4.86845 20.0006 5.00005 19.9999H5.09005L9.26005 19.6199C9.71685 19.5744 10.1441 19.3731 10.4701 19.0499L19.4701 10.0499C19.8194 9.68083 20.0082 9.18837 19.995 8.68039C19.9819 8.17242 19.768 7.69037 19.4001 7.33986ZM9.08005 17.6199L6.08005 17.8999L6.35005 14.8999L12.0001 9.31986L14.7001 12.0199L9.08005 17.6199ZM16.0001 10.6799L13.3201 7.99986L15.2701 5.99986L18.0001 8.72986L16.0001 10.6799Z" fill="#006A7A"/>
</svg>
